<?xml version="1.0" encoding="UTF-8"?>
<!DOCTYPE svg PUBLIC "-//W3C//DTD SVG 1.0//EN" "http://www.w3.org/TR/2001/REC-SVG-20010904/DTD/svg10.dtd">
<!-- Creator: CorelDRAW X7 -->
<svg xmlns="http://www.w3.org/2000/svg" xml:space="preserve" width="210mm" height="297mm" version="1.0" style="shape-rendering:geometricPrecision; text-rendering:geometricPrecision; image-rendering:optimizeQuality; fill-rule:evenodd; clip-rule:evenodd"
viewBox="0 0 21000 29700"
 xmlns:xlink="http://www.w3.org/1999/xlink">
 <defs>
  <style type="text/css">
   <![CDATA[
    .str0 {stroke:#2B2A29;stroke-width:100}
    .str1 {stroke:#2B2A29;stroke-width:250}
    .fil5 {fill:none}
    .fil2 {fill:#FEFEFE}
    .fil7 {fill:#FEFEFE}
    .fil3 {fill:#FFED00}
    .fil4 {fill:#FFED00}
    .fil1 {fill:#E31E24}
    .fil0 {fill:#E31E24}
    .fil9 {fill:black}
    .fil6 {fill:#2B2A29;fill-rule:nonzero}
    .fil8 {fill:#1F1B20;fill-rule:nonzero}
   ]]>
  </style>
   <clipPath id="id0">
    <path d="M19000 14850c0,-4694 -3806,-8500 -8500,-8500 -4694,0 -8500,3806 -8500,8500 0,4694 3806,8500 8500,8500 4694,0 8500,-3806 8500,-8500z"/>
   </clipPath>
 </defs>
 <g>
  <g style="clip-path:url(#id0)">
   <polygon class="fil0" points="2000,6350 2033,6350 2033,23350 2000,23350 "/>
   <polygon id="1" class="fil1" points="2000,6350 2100,6350 2100,23350 2000,23350 "/>
   <polygon id="2" class="fil1" points="2066,6350 2166,6350 2166,23350 2066,23350 "/>
   <polygon id="3" class="fil1" points="2133,6350 2232,6350 2232,23350 2133,23350 "/>
   <polygon id="4" class="fil1" points="2199,6350 2299,6350 2299,23350 2199,23350 "/>
   <polygon id="5" class="fil1" points="2266,6350 2365,6350 2365,23350 2266,23350 "/>
   <polygon id="6" class="fil1" points="2332,6350 2432,6350 2432,23350 2332,23350 "/>
   <polygon id="7" class="fil1" points="2398,6350 2498,6350 2498,23350 2398,23350 "/>
   <polygon id="8" class="fil1" points="2465,6350 2564,6350 2564,23350 2465,23350 "/>
   <polygon id="9" class="fil1" points="2531,6350 2631,6350 2631,23350 2531,23350 "/>
   <polygon id="10" class="fil1" points="2598,6350 2697,6350 2697,23350 2598,23350 "/>
   <polygon id="11" class="fil1" points="2664,6350 2764,6350 2764,23350 2664,23350 "/>
   <polygon id="12" class="fil1" points="2730,6350 2830,6350 2830,23350 2730,23350 "/>
   <polygon id="13" class="fil1" points="2797,6350 2896,6350 2896,23350 2797,23350 "/>
   <polygon id="14" class="fil1" points="2863,6350 2963,6350 2963,23350 2863,23350 "/>
   <polygon id="15" class="fil1" points="2930,6350 3029,6350 3029,23350 2930,23350 "/>
   <polygon id="16" class="fil1" points="2996,6350 3096,6350 3096,23350 2996,23350 "/>
   <polygon id="17" class="fil1" points="3063,6350 3162,6350 3162,23350 3063,23350 "/>
   <polygon id="18" class="fil1" points="3129,6350 3229,6350 3229,23350 3129,23350 "/>
   <polygon id="19" class="fil1" points="3195,6350 3295,6350 3295,23350 3195,23350 "/>
   <polygon id="20" class="fil1" points="3262,6350 3361,6350 3361,23350 3262,23350 "/>
   <polygon id="21" class="fil1" points="3328,6350 3428,6350 3428,23350 3328,23350 "/>
   <polygon id="22" class="fil1" points="3395,6350 3494,6350 3494,23350 3395,23350 "/>
   <polygon id="23" class="fil1" points="3461,6350 3561,6350 3561,23350 3461,23350 "/>
   <polygon id="24" class="fil1" points="3527,6350 3627,6350 3627,23350 3527,23350 "/>
   <polygon id="25" class="fil1" points="3594,6350 3693,6350 3693,23350 3594,23350 "/>
   <polygon id="26" class="fil1" points="3660,6350 3760,6350 3760,23350 3660,23350 "/>
   <polygon id="27" class="fil1" points="3727,6350 3826,6350 3826,23350 3727,23350 "/>
   <polygon id="28" class="fil1" points="3793,6350 3893,6350 3893,23350 3793,23350 "/>
   <polygon id="29" class="fil1" points="3859,6350 3959,6350 3959,23350 3859,23350 "/>
   <polygon id="30" class="fil1" points="3926,6350 4025,6350 4025,23350 3926,23350 "/>
   <polygon id="31" class="fil1" points="3992,6350 4092,6350 4092,23350 3992,23350 "/>
   <polygon id="32" class="fil1" points="4059,6350 4158,6350 4158,23350 4059,23350 "/>
   <polygon id="33" class="fil1" points="4125,6350 4225,6350 4225,23350 4125,23350 "/>
   <polygon id="34" class="fil1" points="4191,6350 4291,6350 4291,23350 4191,23350 "/>
   <polygon id="35" class="fil1" points="4258,6350 4357,6350 4357,23350 4258,23350 "/>
   <polygon id="36" class="fil1" points="4324,6350 4424,6350 4424,23350 4324,23350 "/>
   <polygon id="37" class="fil1" points="4391,6350 4490,6350 4490,23350 4391,23350 "/>
   <polygon id="38" class="fil1" points="4457,6350 4557,6350 4557,23350 4457,23350 "/>
   <polygon id="39" class="fil1" points="4523,6350 4623,6350 4623,23350 4523,23350 "/>
   <polygon id="40" class="fil1" points="4590,6350 4689,6350 4689,23350 4590,23350 "/>
   <polygon id="41" class="fil1" points="4656,6350 4756,6350 4756,23350 4656,23350 "/>
   <polygon id="42" class="fil1" points="4723,6350 4822,6350 4822,23350 4723,23350 "/>
   <polygon id="43" class="fil1" points="4789,6350 4889,6350 4889,23350 4789,23350 "/>
   <polygon id="44" class="fil1" points="4855,6350 4955,6350 4955,23350 4855,23350 "/>
   <polygon id="45" class="fil1" points="4922,6350 5021,6350 5021,23350 4922,23350 "/>
   <polygon id="46" class="fil1" points="4988,6350 5088,6350 5088,23350 4988,23350 "/>
   <polygon id="47" class="fil1" points="5055,6350 5154,6350 5154,23350 5055,23350 "/>
   <polygon id="48" class="fil1" points="5121,6350 5221,6350 5221,23350 5121,23350 "/>
   <polygon id="49" class="fil1" points="5188,6350 5287,6350 5287,23350 5188,23350 "/>
   <polygon id="50" class="fil1" points="5254,6350 5354,6350 5354,23350 5254,23350 "/>
   <polygon id="51" class="fil1" points="5320,6350 5420,6350 5420,23350 5320,23350 "/>
   <polygon id="52" class="fil1" points="5387,6350 5486,6350 5486,23350 5387,23350 "/>
   <polygon id="53" class="fil1" points="5453,6350 5553,6350 5553,23350 5453,23350 "/>
   <polygon id="54" class="fil1" points="5520,6350 5619,6350 5619,23350 5520,23350 "/>
   <polygon id="55" class="fil1" points="5586,6350 5686,6350 5686,23350 5586,23350 "/>
   <polygon id="56" class="fil1" points="5652,6350 5752,6350 5752,23350 5652,23350 "/>
   <polygon id="57" class="fil1" points="5719,6350 5818,6350 5818,23350 5719,23350 "/>
   <polygon id="58" class="fil1" points="5785,6350 5885,6350 5885,23350 5785,23350 "/>
   <polygon id="59" class="fil1" points="5852,6350 5951,6350 5951,23350 5852,23350 "/>
   <polygon id="60" class="fil1" points="5918,6350 6018,6350 6018,23350 5918,23350 "/>
   <polygon id="61" class="fil1" points="5984,6350 6084,6350 6084,23350 5984,23350 "/>
   <polygon id="62" class="fil1" points="6051,6350 6150,6350 6150,23350 6051,23350 "/>
   <polygon id="63" class="fil1" points="6117,6350 6217,6350 6217,23350 6117,23350 "/>
   <polygon id="64" class="fil1" points="6184,6350 6283,6350 6283,23350 6184,23350 "/>
   <polygon id="65" class="fil1" points="6250,6350 6350,6350 6350,23350 6250,23350 "/>
   <polygon id="66" class="fil1" points="6316,6350 6416,6350 6416,23350 6316,23350 "/>
   <polygon id="67" class="fil1" points="6383,6350 6482,6350 6482,23350 6383,23350 "/>
   <polygon id="68" class="fil1" points="6449,6350 6549,6350 6549,23350 6449,23350 "/>
   <polygon id="69" class="fil1" points="6516,6350 6615,6350 6615,23350 6516,23350 "/>
   <polygon id="70" class="fil1" points="6582,6350 6682,6350 6682,23350 6582,23350 "/>
   <polygon id="71" class="fil1" points="6648,6350 6748,6350 6748,23350 6648,23350 "/>
   <polygon id="72" class="fil1" points="6715,6350 6814,6350 6814,23350 6715,23350 "/>
   <polygon id="73" class="fil1" points="6781,6350 6881,6350 6881,23350 6781,23350 "/>
   <polygon id="74" class="fil1" points="6848,6350 6947,6350 6947,23350 6848,23350 "/>
   <polygon id="75" class="fil1" points="6914,6350 7014,6350 7014,23350 6914,23350 "/>
   <polygon id="76" class="fil1" points="6980,6350 7080,6350 7080,23350 6980,23350 "/>
   <polygon id="77" class="fil1" points="7047,6350 7146,6350 7146,23350 7047,23350 "/>
   <polygon id="78" class="fil1" points="7113,6350 7213,6350 7213,23350 7113,23350 "/>
   <polygon id="79" class="fil1" points="7180,6350 7279,6350 7279,23350 7180,23350 "/>
   <polygon id="80" class="fil1" points="7246,6350 7346,6350 7346,23350 7246,23350 "/>
   <polygon id="81" class="fil1" points="7313,6350 7412,6350 7412,23350 7313,23350 "/>
   <polygon id="82" class="fil1" points="7379,6350 7479,6350 7479,23350 7379,23350 "/>
   <polygon id="83" class="fil1" points="7445,6350 7545,6350 7545,23350 7445,23350 "/>
   <polygon id="84" class="fil1" points="7512,6350 7611,6350 7611,23350 7512,23350 "/>
   <polygon id="85" class="fil1" points="7578,6350 7678,6350 7678,23350 7578,23350 "/>
   <polygon id="86" class="fil1" points="7645,6350 7744,6350 7744,23350 7645,23350 "/>
   <polygon id="87" class="fil2" points="7711,6350 7811,6350 7811,23350 7711,23350 "/>
   <polygon id="88" class="fil2" points="7777,6350 7877,6350 7877,23350 7777,23350 "/>
   <polygon id="89" class="fil2" points="7844,6350 7943,6350 7943,23350 7844,23350 "/>
   <polygon id="90" class="fil2" points="7910,6350 8010,6350 8010,23350 7910,23350 "/>
   <polygon id="91" class="fil2" points="7977,6350 8076,6350 8076,23350 7977,23350 "/>
   <polygon id="92" class="fil2" points="8043,6350 8143,6350 8143,23350 8043,23350 "/>
   <polygon id="93" class="fil2" points="8109,6350 8209,6350 8209,23350 8109,23350 "/>
   <polygon id="94" class="fil2" points="8176,6350 8275,6350 8275,23350 8176,23350 "/>
   <polygon id="95" class="fil2" points="8242,6350 8342,6350 8342,23350 8242,23350 "/>
   <polygon id="96" class="fil2" points="8309,6350 8408,6350 8408,23350 8309,23350 "/>
   <polygon id="97" class="fil2" points="8375,6350 8475,6350 8475,23350 8375,23350 "/>
   <polygon id="98" class="fil2" points="8441,6350 8541,6350 8541,23350 8441,23350 "/>
   <polygon id="99" class="fil2" points="8508,6350 8607,6350 8607,23350 8508,23350 "/>
   <polygon id="100" class="fil2" points="8574,6350 8674,6350 8674,23350 8574,23350 "/>
   <polygon id="101" class="fil2" points="8641,6350 8740,6350 8740,23350 8641,23350 "/>
   <polygon id="102" class="fil2" points="8707,6350 8807,6350 8807,23350 8707,23350 "/>
   <polygon id="103" class="fil2" points="8773,6350 8873,6350 8873,23350 8773,23350 "/>
   <polygon id="104" class="fil2" points="8840,6350 8939,6350 8939,23350 8840,23350 "/>
   <polygon id="105" class="fil2" points="8906,6350 9006,6350 9006,23350 8906,23350 "/>
   <polygon id="106" class="fil2" points="8973,6350 9072,6350 9072,23350 8973,23350 "/>
   <polygon id="107" class="fil2" points="9039,6350 9139,6350 9139,23350 9039,23350 "/>
   <polygon id="108" class="fil2" points="9105,6350 9205,6350 9205,23350 9105,23350 "/>
   <polygon id="109" class="fil2" points="9172,6350 9271,6350 9271,23350 9172,23350 "/>
   <polygon id="110" class="fil2" points="9238,6350 9338,6350 9338,23350 9238,23350 "/>
   <polygon id="111" class="fil2" points="9305,6350 9404,6350 9404,23350 9305,23350 "/>
   <polygon id="112" class="fil2" points="9371,6350 9471,6350 9471,23350 9371,23350 "/>
   <polygon id="113" class="fil2" points="9437,6350 9537,6350 9537,23350 9437,23350 "/>
   <polygon id="114" class="fil2" points="9504,6350 9604,6350 9604,23350 9504,23350 "/>
   <polygon id="115" class="fil2" points="9570,6350 9670,6350 9670,23350 9570,23350 "/>
   <polygon id="116" class="fil2" points="9637,6350 9736,6350 9736,23350 9637,23350 "/>
   <polygon id="117" class="fil2" points="9703,6350 9803,6350 9803,23350 9703,23350 "/>
   <polygon id="118" class="fil2" points="9770,6350 9869,6350 9869,23350 9770,23350 "/>
   <polygon id="119" class="fil2" points="9836,6350 9936,6350 9936,23350 9836,23350 "/>
   <polygon id="120" class="fil2" points="9902,6350 10002,6350 10002,23350 9902,23350 "/>
   <polygon id="121" class="fil2" points="9969,6350 10068,6350 10068,23350 9969,23350 "/>
   <polygon id="122" class="fil2" points="10035,6350 10135,6350 10135,23350 10035,23350 "/>
   <polygon id="123" class="fil2" points="10102,6350 10201,6350 10201,23350 10102,23350 "/>
   <polygon id="124" class="fil2" points="10168,6350 10268,6350 10268,23350 10168,23350 "/>
   <polygon id="125" class="fil2" points="10234,6350 10334,6350 10334,23350 10234,23350 "/>
   <polygon id="126" class="fil2" points="10301,6350 10400,6350 10400,23350 10301,23350 "/>
   <polygon id="127" class="fil2" points="10367,6350 10467,6350 10467,23350 10367,23350 "/>
   <polygon id="128" class="fil2" points="10434,6350 10533,6350 10533,23350 10434,23350 "/>
   <polygon id="129" class="fil2" points="10500,6350 10600,6350 10600,23350 10500,23350 "/>
   <polygon id="130" class="fil2" points="10566,6350 10666,6350 10666,23350 10566,23350 "/>
   <polygon id="131" class="fil2" points="10633,6350 10732,6350 10732,23350 10633,23350 "/>
   <polygon id="132" class="fil2" points="10699,6350 10799,6350 10799,23350 10699,23350 "/>
   <polygon id="133" class="fil2" points="10766,6350 10865,6350 10865,23350 10766,23350 "/>
   <polygon id="134" class="fil2" points="10832,6350 10932,6350 10932,23350 10832,23350 "/>
   <polygon id="135" class="fil2" points="10898,6350 10998,6350 10998,23350 10898,23350 "/>
   <polygon id="136" class="fil2" points="10965,6350 11064,6350 11064,23350 10965,23350 "/>
   <polygon id="137" class="fil2" points="11031,6350 11131,6350 11131,23350 11031,23350 "/>
   <polygon id="138" class="fil2" points="11098,6350 11197,6350 11197,23350 11098,23350 "/>
   <polygon id="139" class="fil2" points="11164,6350 11264,6350 11264,23350 11164,23350 "/>
   <polygon id="140" class="fil2" points="11230,6350 11330,6350 11330,23350 11230,23350 "/>
   <polygon id="141" class="fil2" points="11297,6350 11396,6350 11396,23350 11297,23350 "/>
   <polygon id="142" class="fil2" points="11363,6350 11463,6350 11463,23350 11363,23350 "/>
   <polygon id="143" class="fil2" points="11430,6350 11529,6350 11529,23350 11430,23350 "/>
   <polygon id="144" class="fil2" points="11496,6350 11596,6350 11596,23350 11496,23350 "/>
   <polygon id="145" class="fil2" points="11562,6350 11662,6350 11662,23350 11562,23350 "/>
   <polygon id="146" class="fil2" points="11629,6350 11729,6350 11729,23350 11629,23350 "/>
   <polygon id="147" class="fil2" points="11695,6350 11795,6350 11795,23350 11695,23350 "/>
   <polygon id="148" class="fil2" points="11762,6350 11861,6350 11861,23350 11762,23350 "/>
   <polygon id="149" class="fil2" points="11828,6350 11928,6350 11928,23350 11828,23350 "/>
   <polygon id="150" class="fil2" points="11895,6350 11994,6350 11994,23350 11895,23350 "/>
   <polygon id="151" class="fil2" points="11961,6350 12061,6350 12061,23350 11961,23350 "/>
   <polygon id="152" class="fil2" points="12027,6350 12127,6350 12127,23350 12027,23350 "/>
   <polygon id="153" class="fil2" points="12094,6350 12193,6350 12193,23350 12094,23350 "/>
   <polygon id="154" class="fil2" points="12160,6350 12260,6350 12260,23350 12160,23350 "/>
   <polygon id="155" class="fil2" points="12227,6350 12326,6350 12326,23350 12227,23350 "/>
   <polygon id="156" class="fil2" points="12293,6350 12393,6350 12393,23350 12293,23350 "/>
   <polygon id="157" class="fil2" points="12359,6350 12459,6350 12459,23350 12359,23350 "/>
   <polygon id="158" class="fil2" points="12426,6350 12525,6350 12525,23350 12426,23350 "/>
   <polygon id="159" class="fil2" points="12492,6350 12592,6350 12592,23350 12492,23350 "/>
   <polygon id="160" class="fil2" points="12559,6350 12658,6350 12658,23350 12559,23350 "/>
   <polygon id="161" class="fil2" points="12625,6350 12725,6350 12725,23350 12625,23350 "/>
   <polygon id="162" class="fil2" points="12691,6350 12791,6350 12791,23350 12691,23350 "/>
   <polygon id="163" class="fil2" points="12758,6350 12857,6350 12857,23350 12758,23350 "/>
   <polygon id="164" class="fil2" points="12824,6350 12924,6350 12924,23350 12824,23350 "/>
   <polygon id="165" class="fil2" points="12891,6350 12990,6350 12990,23350 12891,23350 "/>
   <polygon id="166" class="fil2" points="12957,6350 13057,6350 13057,23350 12957,23350 "/>
   <polygon id="167" class="fil2" points="13023,6350 13123,6350 13123,23350 13023,23350 "/>
   <polygon id="168" class="fil2" points="13090,6350 13189,6350 13189,23350 13090,23350 "/>
   <polygon id="169" class="fil3" points="13156,6350 13256,6350 13256,23350 13156,23350 "/>
   <polygon id="170" class="fil3" points="13223,6350 13322,6350 13322,23350 13223,23350 "/>
   <polygon id="171" class="fil3" points="13289,6350 13389,6350 13389,23350 13289,23350 "/>
   <polygon id="172" class="fil3" points="13355,6350 13455,6350 13455,23350 13355,23350 "/>
   <polygon id="173" class="fil3" points="13422,6350 13521,6350 13521,23350 13422,23350 "/>
   <polygon id="174" class="fil3" points="13488,6350 13588,6350 13588,23350 13488,23350 "/>
   <polygon id="175" class="fil3" points="13555,6350 13654,6350 13654,23350 13555,23350 "/>
   <polygon id="176" class="fil3" points="13621,6350 13721,6350 13721,23350 13621,23350 "/>
   <polygon id="177" class="fil3" points="13687,6350 13787,6350 13787,23350 13687,23350 "/>
   <polygon id="178" class="fil3" points="13754,6350 13854,6350 13854,23350 13754,23350 "/>
   <polygon id="179" class="fil3" points="13820,6350 13920,6350 13920,23350 13820,23350 "/>
   <polygon id="180" class="fil3" points="13887,6350 13986,6350 13986,23350 13887,23350 "/>
   <polygon id="181" class="fil3" points="13953,6350 14053,6350 14053,23350 13953,23350 "/>
   <polygon id="182" class="fil3" points="14020,6350 14119,6350 14119,23350 14020,23350 "/>
   <polygon id="183" class="fil3" points="14086,6350 14186,6350 14186,23350 14086,23350 "/>
   <polygon id="184" class="fil3" points="14152,6350 14252,6350 14252,23350 14152,23350 "/>
   <polygon id="185" class="fil3" points="14219,6350 14318,6350 14318,23350 14219,23350 "/>
   <polygon id="186" class="fil3" points="14285,6350 14385,6350 14385,23350 14285,23350 "/>
   <polygon id="187" class="fil3" points="14352,6350 14451,6350 14451,23350 14352,23350 "/>
   <polygon id="188" class="fil3" points="14418,6350 14518,6350 14518,23350 14418,23350 "/>
   <polygon id="189" class="fil3" points="14484,6350 14584,6350 14584,23350 14484,23350 "/>
   <polygon id="190" class="fil3" points="14551,6350 14650,6350 14650,23350 14551,23350 "/>
   <polygon id="191" class="fil3" points="14617,6350 14717,6350 14717,23350 14617,23350 "/>
   <polygon id="192" class="fil3" points="14684,6350 14783,6350 14783,23350 14684,23350 "/>
   <polygon id="193" class="fil3" points="14750,6350 14850,6350 14850,23350 14750,23350 "/>
   <polygon id="194" class="fil3" points="14816,6350 14916,6350 14916,23350 14816,23350 "/>
   <polygon id="195" class="fil3" points="14883,6350 14982,6350 14982,23350 14883,23350 "/>
   <polygon id="196" class="fil3" points="14949,6350 15049,6350 15049,23350 14949,23350 "/>
   <polygon id="197" class="fil3" points="15016,6350 15115,6350 15115,23350 15016,23350 "/>
   <polygon id="198" class="fil3" points="15082,6350 15182,6350 15182,23350 15082,23350 "/>
   <polygon id="199" class="fil3" points="15148,6350 15248,6350 15248,23350 15148,23350 "/>
   <polygon id="200" class="fil3" points="15215,6350 15314,6350 15314,23350 15215,23350 "/>
   <polygon id="201" class="fil3" points="15281,6350 15381,6350 15381,23350 15281,23350 "/>
   <polygon id="202" class="fil3" points="15348,6350 15447,6350 15447,23350 15348,23350 "/>
   <polygon id="203" class="fil3" points="15414,6350 15514,6350 15514,23350 15414,23350 "/>
   <polygon id="204" class="fil3" points="15480,6350 15580,6350 15580,23350 15480,23350 "/>
   <polygon id="205" class="fil3" points="15547,6350 15646,6350 15646,23350 15547,23350 "/>
   <polygon id="206" class="fil3" points="15613,6350 15713,6350 15713,23350 15613,23350 "/>
   <polygon id="207" class="fil3" points="15680,6350 15779,6350 15779,23350 15680,23350 "/>
   <polygon id="208" class="fil3" points="15746,6350 15846,6350 15846,23350 15746,23350 "/>
   <polygon id="209" class="fil3" points="15812,6350 15912,6350 15912,23350 15812,23350 "/>
   <polygon id="210" class="fil3" points="15879,6350 15979,6350 15979,23350 15879,23350 "/>
   <polygon id="211" class="fil3" points="15945,6350 16045,6350 16045,23350 15945,23350 "/>
   <polygon id="212" class="fil3" points="16012,6350 16111,6350 16111,23350 16012,23350 "/>
   <polygon id="213" class="fil3" points="16078,6350 16178,6350 16178,23350 16078,23350 "/>
   <polygon id="214" class="fil3" points="16145,6350 16244,6350 16244,23350 16145,23350 "/>
   <polygon id="215" class="fil3" points="16211,6350 16311,6350 16311,23350 16211,23350 "/>
   <polygon id="216" class="fil3" points="16277,6350 16377,6350 16377,23350 16277,23350 "/>
   <polygon id="217" class="fil3" points="16344,6350 16443,6350 16443,23350 16344,23350 "/>
   <polygon id="218" class="fil3" points="16410,6350 16510,6350 16510,23350 16410,23350 "/>
   <polygon id="219" class="fil3" points="16477,6350 16576,6350 16576,23350 16477,23350 "/>
   <polygon id="220" class="fil3" points="16543,6350 16643,6350 16643,23350 16543,23350 "/>
   <polygon id="221" class="fil3" points="16609,6350 16709,6350 16709,23350 16609,23350 "/>
   <polygon id="222" class="fil3" points="16676,6350 16775,6350 16775,23350 16676,23350 "/>
   <polygon id="223" class="fil3" points="16742,6350 16842,6350 16842,23350 16742,23350 "/>
   <polygon id="224" class="fil3" points="16809,6350 16908,6350 16908,23350 16809,23350 "/>
   <polygon id="225" class="fil3" points="16875,6350 16975,6350 16975,23350 16875,23350 "/>
   <polygon id="226" class="fil3" points="16941,6350 17041,6350 17041,23350 16941,23350 "/>
   <polygon id="227" class="fil3" points="17008,6350 17107,6350 17107,23350 17008,23350 "/>
   <polygon id="228" class="fil3" points="17074,6350 17174,6350 17174,23350 17074,23350 "/>
   <polygon id="229" class="fil3" points="17141,6350 17240,6350 17240,23350 17141,23350 "/>
   <polygon id="230" class="fil3" points="17207,6350 17307,6350 17307,23350 17207,23350 "/>
   <polygon id="231" class="fil3" points="17273,6350 17373,6350 17373,23350 17273,23350 "/>
   <polygon id="232" class="fil3" points="17340,6350 17439,6350 17439,23350 17340,23350 "/>
   <polygon id="233" class="fil3" points="17406,6350 17506,6350 17506,23350 17406,23350 "/>
   <polygon id="234" class="fil3" points="17473,6350 17572,6350 17572,23350 17473,23350 "/>
   <polygon id="235" class="fil3" points="17539,6350 17639,6350 17639,23350 17539,23350 "/>
   <polygon id="236" class="fil3" points="17605,6350 17705,6350 17705,23350 17605,23350 "/>
   <polygon id="237" class="fil3" points="17672,6350 17771,6350 17771,23350 17672,23350 "/>
   <polygon id="238" class="fil3" points="17738,6350 17838,6350 17838,23350 17738,23350 "/>
   <polygon id="239" class="fil3" points="17805,6350 17904,6350 17904,23350 17805,23350 "/>
   <polygon id="240" class="fil3" points="17871,6350 17971,6350 17971,23350 17871,23350 "/>
   <polygon id="241" class="fil3" points="17937,6350 18037,6350 18037,23350 17937,23350 "/>
   <polygon id="242" class="fil3" points="18004,6350 18104,6350 18104,23350 18004,23350 "/>
   <polygon id="243" class="fil3" points="18070,6350 18170,6350 18170,23350 18070,23350 "/>
   <polygon id="244" class="fil3" points="18137,6350 18236,6350 18236,23350 18137,23350 "/>
   <polygon id="245" class="fil3" points="18203,6350 18303,6350 18303,23350 18203,23350 "/>
   <polygon id="246" class="fil3" points="18270,6350 18369,6350 18369,23350 18270,23350 "/>
   <polygon id="247" class="fil3" points="18336,6350 18436,6350 18436,23350 18336,23350 "/>
   <polygon id="248" class="fil3" points="18402,6350 18502,6350 18502,23350 18402,23350 "/>
   <polygon id="249" class="fil3" points="18469,6350 18568,6350 18568,23350 18469,23350 "/>
   <polygon id="250" class="fil3" points="18535,6350 18635,6350 18635,23350 18535,23350 "/>
   <polygon id="251" class="fil3" points="18602,6350 18701,6350 18701,23350 18602,23350 "/>
   <polygon id="252" class="fil3" points="18668,6350 18768,6350 18768,23350 18668,23350 "/>
   <polygon id="253" class="fil3" points="18734,6350 18834,6350 18834,23350 18734,23350 "/>
   <polygon id="254" class="fil3" points="18801,6350 18900,6350 18900,23350 18801,23350 "/>
   <polygon id="255" class="fil4" points="18867,6350 19000,6350 19000,23350 18867,23350 "/>
  </g>
  <path id="256" class="fil5 str0" d="M19000 14850c0,-4694 -3806,-8500 -8500,-8500 -4694,0 -8500,3806 -8500,8500 0,4694 3806,8500 8500,8500 4694,0 8500,-3806 8500,-8500z"/>
 </g>
 <path class="fil6" d="M7541 10027l-21 101c-62,297 -212,546 -449,746 -131,111 -276,194 -435,248 -159,54 -322,77 -490,68 -175,-9 -339,-51 -491,-125 -152,-74 -284,-177 -395,-308 -111,-131 -190,-278 -237,-440 -47,-161 -61,-329 -41,-503 17,-169 66,-327 146,-474 80,-148 185,-277 317,-388 234,-199 504,-305 807,-318l101 -6 232 580 -217 -11c-99,-5 -196,9 -290,42 -93,33 -181,84 -262,153 -80,68 -144,146 -192,234 -47,87 -77,181 -89,280 -21,193 27,359 144,497 57,68 126,121 206,159 81,38 167,60 260,64 100,5 197,-9 291,-41 94,-32 182,-82 263,-150 81,-69 145,-147 193,-236 49,-89 79,-183 90,-281l25 -216 534 325z"/>
 <polygon id="1" class="fil6" points="7501,7622 9515,7154 10074,9555 9520,9685 9089,7833 8179,8045 8610,9896 8060,10024 "/>
 <path id="2" class="fil6" d="M12866 10012l-584 -135 -33 -265c-1,-17 -9,-27 -26,-31l-1037 -240c-14,-3 -26,3 -36,17l-143 224 -584 -134 1422 -2210 712 164 309 2610zm-1351 -1221c-7,11 -8,21 -3,32 5,10 13,17 25,20l594 137c29,7 43,-6 41,-37l-105 -893c-3,-18 -13,-29 -29,-32 -16,-4 -28,2 -36,16l-487 757z"/>
 <path id="3" class="fil6" d="M14841 11207l-103 -5c-302,-18 -571,-128 -805,-332 -129,-113 -232,-244 -310,-393 -78,-148 -125,-306 -142,-473 -17,-174 0,-342 50,-504 51,-161 132,-307 245,-436 112,-129 245,-229 398,-300 153,-71 316,-110 491,-116 169,-8 332,16 491,73 157,57 301,142 431,255 231,202 376,452 434,750l22 99 -538 316 -22 -215c-11,-100 -39,-193 -86,-281 -46,-87 -110,-166 -189,-236 -80,-69 -167,-121 -261,-154 -93,-34 -190,-49 -290,-46 -194,8 -350,80 -468,216 -59,67 -101,142 -127,227 -25,85 -33,173 -23,266 10,99 38,193 84,281 46,89 109,167 189,237 80,69 167,122 262,156 94,34 191,50 291,46l217 -7 -241 576z"/>
 <circle class="fil7 str1" cx="10500" cy="14850" r="4750"/>
 <path class="fil8" d="M4042 14854c-77,36 -157,54 -241,54 -84,1 -173,-2 -266,-9l-143 -11 0 -2c-63,-8 -124,-19 -182,-34 -59,-15 -113,-40 -164,-73 -88,-59 -148,-139 -182,-239 -34,-90 -46,-207 -35,-351 11,-141 40,-254 88,-341 49,-93 121,-162 215,-207 76,-35 157,-53 242,-54 85,0 173,3 264,10l144 11 0 2c63,7 124,18 182,33 58,14 113,39 164,74 86,59 147,138 182,236 34,94 45,211 35,351 -11,144 -40,258 -88,342 -48,94 -120,163 -215,208zm-481 -297c68,5 132,8 192,10 60,2 107,-6 142,-23 6,-2 14,-7 24,-14 10,-7 20,-20 30,-39 11,-19 21,-45 31,-79 9,-33 16,-78 21,-134 4,-55 4,-100 -1,-135 -4,-35 -10,-62 -18,-82 -8,-19 -16,-33 -24,-42 -9,-8 -16,-14 -21,-17 -33,-23 -78,-37 -135,-45 -57,-7 -119,-13 -185,-18l-5 0c-67,-5 -131,-9 -191,-11 -60,-1 -108,6 -143,24 -4,2 -12,7 -22,14 -11,7 -21,19 -32,38 -10,18 -20,44 -30,78 -10,34 -17,78 -21,133 -4,57 -4,102 0,136 5,34 11,62 19,82 7,21 16,35 25,44 9,8 16,14 20,17 32,22 77,37 135,44 57,7 120,14 187,19l2 0zm53 1306c-2,-1 -5,-1 -9,1l-664 581 -53 -403 385 -337c4,-6 4,-10 -2,-12l-459 -226 -54 -405 793 391c3,1 6,0 10,-2l668 -588 53 405 -388 342c-5,4 -5,8 2,13l464 229 53 405 -799 -394zm1032 1106c29,84 40,168 33,253 -6,85 -28,165 -63,239 -36,74 -86,140 -149,197 -63,58 -137,101 -221,130 -75,25 -153,36 -235,31 -82,-5 -161,-23 -236,-56 -84,-37 -156,-87 -216,-152 -59,-65 -103,-140 -132,-225l-122 -357 -181 62 -109 -319 1400 -478 231 675zm-900 305c14,40 34,75 61,106 27,30 58,54 93,72 35,18 73,28 114,32 40,3 81,-2 121,-16 40,-14 75,-34 105,-62 30,-27 54,-59 72,-94 18,-35 28,-73 31,-113 4,-41 -2,-81 -15,-121l-115 -335c-5,-15 -14,-19 -29,-14l-539 184c-13,4 -17,14 -12,29l113 332zm457 2079l-178 -313 103 -122c7,-7 8,-15 3,-24l-318 -555c-4,-7 -11,-10 -22,-9l-157 29 -178 -312 1552 -275 218 380 -1023 1201zm-13 -1093c-7,1 -13,5 -15,11 -3,7 -3,13 1,19l182 318c9,16 20,17 33,3l350 -410c7,-9 8,-18 3,-26 -5,-9 -13,-12 -23,-9l-531 94zm2004 1112l-1116 977 -223 -255 287 -250c10,-10 11,-20 2,-30l-296 -338c-8,-10 -18,-10 -28,0l-287 251 -223 -255 1116 -977 223 254 -543 476c-10,9 -11,18 -3,28l295 338c10,10 20,11 30,2l543 -476 223 255zm969 764l-916 1167 -267 -209 236 -299c8,-11 7,-21 -4,-30l-353 -277c-10,-8 -20,-6 -28,5l-235 300 -267 -209 916 -1168 266 209 -445 568c-9,11 -8,21 2,29l353 276c11,9 21,8 30,-3l445 -568 267 209zm958 737c3,84 -13,164 -45,242 -33,78 -71,158 -114,240l-67 128 -2 -1c-32,55 -66,106 -103,154 -37,48 -81,88 -132,122 -88,57 -185,81 -291,72 -96,-4 -208,-39 -336,-106 -125,-66 -218,-137 -279,-215 -65,-82 -100,-176 -105,-280 -2,-84 13,-165 46,-243 33,-78 71,-158 114,-240l66 -127 2 1c32,-55 66,-106 102,-154 37,-48 81,-89 133,-122 88,-56 185,-80 289,-73 99,5 211,41 337,106 127,67 220,139 279,215 67,82 103,175 106,281zm-463 324c31,-60 60,-118 85,-172 25,-55 37,-101 35,-141 0,-6 -1,-15 -3,-27 -3,-11 -11,-26 -24,-43 -13,-17 -33,-37 -60,-59 -27,-22 -65,-46 -115,-72 -49,-26 -90,-43 -124,-53 -34,-10 -62,-15 -83,-16 -21,0 -37,1 -48,6 -11,5 -20,9 -25,12 -33,21 -64,57 -93,107 -30,49 -60,104 -91,163l-2 3c-31,60 -59,118 -85,172 -25,55 -37,101 -35,141 1,5 2,13 5,26 2,12 9,27 22,44 13,17 33,36 60,58 27,23 65,47 114,72 50,26 92,44 125,54 33,9 61,14 83,15 21,1 38,-1 49,-6 12,-5 20,-9 24,-11 33,-21 65,-57 94,-107 29,-50 60,-105 91,-165l1 -1zm804 -104c-11,-3 -18,1 -21,12l-77 270c-4,13 0,20 11,23l661 190 -93 324 -661 -190c-11,-3 -18,1 -22,13l-30 106c-3,11 0,18 11,21l818 235 -93 326 -1160 -334 409 -1424 1160 334 -95 329 -818 -235zm3291 1387l-359 27 -66 -145c-4,-10 -10,-14 -20,-14l-638 49c-8,0 -14,6 -18,16l-41 154 -359 27 420 -1520 437 -33 644 1439zm-992 -457c-2,7 -1,13 3,18 5,6 11,8 18,8l365 -28c18,-1 24,-11 17,-29l-220 -493c-5,-9 -12,-14 -22,-13 -10,1 -16,6 -18,16l-143 521zm1816 -1290l93 323 -750 216 314 1094 -323 93 -408 -1418 1074 -308zm533 155c-10,5 -13,13 -8,23l130 250c6,11 14,14 24,9l610 -317 155 299 -611 317c-10,5 -12,13 -6,24l51 98c5,10 13,13 23,7l755 -391 156 301 -1071 555 -682 -1316 1071 -555 158 304 -755 392zm1579 -1419l916 1167 -267 209 -235 -300c-8,-11 -18,-12 -29,-3l-354 277c-10,7 -10,17 -1,28l235 300 -267 209 -916 -1168 267 -209 445 568c9,11 18,13 28,5l354 -277c11,-8 12,-18 3,-29l-445 -568 266 -209zm909 -1007l256 221 -307 356c-6,7 -6,14 2,21l856 738 -221 256 -856 -738c-8,-6 -15,-6 -21,2l-308 357 -257 -221 856 -992zm1681 -380l9 62c26,180 -8,351 -100,513 -51,89 -115,166 -193,229 -79,64 -166,110 -262,140 -101,31 -201,41 -303,30 -101,-10 -196,-41 -286,-92 -89,-51 -164,-117 -224,-198 -60,-81 -103,-173 -128,-275 -25,-98 -30,-197 -16,-297 15,-100 48,-195 98,-284 92,-161 222,-276 390,-346l55 -25 250 279 -124 39c-57,18 -109,46 -155,84 -46,38 -84,84 -116,139 -31,56 -51,113 -59,172 -9,59 -6,118 8,176 28,114 89,197 183,251 47,27 97,42 150,47 53,5 106,0 160,-17 57,-18 109,-46 155,-83 47,-38 86,-84 117,-140 32,-55 52,-112 61,-172 9,-60 6,-119 -8,-178l-30 -126 368 72zm-677 -1876l322 105 -146 447c-3,9 0,16 9,19l1075 351 -106 322 -1074 -352c-9,-3 -16,1 -19,10l-147 449 -321 -106 407 -1245zm851 -1078c43,-33 91,-57 143,-73 52,-15 106,-20 161,-16 62,5 119,21 171,48 53,27 98,63 135,107 38,44 66,94 86,150 19,56 26,114 21,176l-60 792 -1473 -112 60 -791c5,-64 21,-122 48,-175 28,-53 65,-99 111,-136 44,-34 93,-58 148,-75 55,-16 113,-22 174,-17 108,8 200,49 275,122zm-242 778c13,1 20,-6 21,-20l32 -422c2,-29 -8,-56 -29,-80 -22,-25 -49,-38 -81,-41 -32,-3 -60,5 -84,26 -23,21 -36,47 -38,78l-33 422c-1,14 5,21 18,22l194 15zm570 43c13,1 19,-5 21,-19l32 -433c3,-31 -6,-59 -26,-83 -20,-24 -47,-37 -79,-40 -32,-1 -61,9 -86,29 -25,20 -38,45 -41,74l-33 435c-1,14 5,22 18,23l194 14zm-909 -2235c70,-46 146,-76 230,-89 83,-14 171,-24 264,-31l143 -11 0 2c64,-2 126,0 186,6 59,6 117,22 173,48 95,45 167,114 215,208 48,85 77,198 88,342 11,141 -1,258 -35,351 -35,99 -96,177 -182,236 -70,47 -147,77 -231,90 -83,14 -171,24 -263,31l-143 11 0 -3c-64,2 -126,1 -185,-5 -60,-5 -118,-21 -174,-48 -94,-45 -166,-114 -215,-207 -48,-86 -77,-200 -88,-341 -10,-144 1,-260 35,-351 34,-100 94,-180 182,-239zm520 222c-68,5 -131,11 -191,19 -60,7 -106,22 -138,44 -5,3 -12,9 -21,18 -8,8 -16,23 -24,43 -8,20 -14,48 -18,82 -5,34 -5,80 -1,136 5,55 12,99 21,133 10,34 20,60 31,78 10,19 20,31 30,38 10,8 18,12 23,15 36,17 82,25 140,23 58,-2 120,-5 186,-10l4 0c68,-5 132,-12 191,-19 60,-7 106,-22 138,-44 4,-4 11,-9 20,-18 9,-8 18,-22 25,-42 8,-20 14,-47 18,-82 5,-35 5,-80 1,-135 -4,-56 -11,-101 -21,-134 -10,-33 -20,-60 -30,-79 -11,-19 -22,-32 -32,-39 -10,-7 -18,-11 -22,-14 -36,-17 -82,-25 -140,-23 -58,1 -121,5 -188,10l-2 0z"/>
 <g id="_1007400592">
  <path class="fil9" d="M10000 12304c-1562,131 -2937,807 -3841,1881 -183,220 -453,616 -453,669 0,86 375,598 653,890 179,189 565,517 797,675 438,299 1048,591 1548,739 297,88 669,164 1031,209 389,51 1065,54 1456,9 999,-113 1858,-423 2668,-962 214,-144 657,-526 839,-724 287,-316 596,-755 596,-849 0,-101 -328,-551 -636,-876 -219,-230 -680,-611 -948,-782 -719,-458 -1533,-742 -2438,-854 -272,-34 -1002,-49 -1272,-25zm783 449c504,54 1050,270 1424,565 455,359 755,919 784,1462 49,901 -669,1778 -1700,2068 -362,103 -831,139 -1163,87 -534,-83 -1048,-312 -1399,-622 -340,-299 -565,-665 -663,-1074 -40,-162 -45,-229 -36,-468 13,-305 57,-489 185,-743 429,-852 1505,-1387 2568,-1275l0 0z"/>
  <path class="fil9" d="M10319 13475c0,11 34,78 75,150 102,174 131,317 97,474 -93,432 -603,729 -1086,634 -119,-24 -346,-117 -395,-162 -53,-51 -111,-44 -130,14 -32,96 -17,512 21,636 141,449 579,833 1110,973 187,49 534,67 755,38 665,-88 1201,-510 1347,-1060 41,-149 45,-470 11,-628 -57,-263 -221,-503 -495,-723 -313,-250 -653,-366 -1091,-366 -146,0 -219,7 -219,20l0 0z"/>
 </g>
</svg>
